<svg width="335" height="88" viewBox="0 0 335 88" fill="none" xmlns="http://www.w3.org/2000/svg">
<path d="M62.9957 0.412074C73.1417 -0.0979257 83.5357 0.352067 93.7147 0.342067C101.797 0.332067 110.257 -0.232943 118.287 0.457057C120.318 0.632057 122.246 1.01708 124.086 1.91708C131.386 5.47208 137.529 14.002 143.729 19.367C149.491 24.347 156.196 27.327 163.806 28.007C193.581 30.652 198.266 1.48206 217.886 0.27206C225.736 -0.21294 233.821 0.372045 241.691 0.382045C253.186 0.397045 269.546 -1.06795 280.481 1.64205C285.401 2.86205 289.801 5.26203 293.591 8.61703C301.846 15.932 308.236 27.002 314.786 35.882C320.131 43.127 326.596 50.5471 330.981 58.3871C332.711 61.4921 334.166 64.7871 334.281 68.3971C334.426 72.9171 331.591 77.1671 328.456 80.2271C320.811 87.6721 308.976 86.857 299.136 86.867L106.029 87.0421L53.4797 87.057C42.4497 87.082 31.0047 87.4921 20.0387 86.4671C8.27572 86.0171 -5.2933 72.6671 2.1057 60.7021C11.7787 45.0621 25.2127 28.4021 36.1807 13.4621C42.4997 4.85206 52.7847 1.21207 62.9957 0.412074Z" fill="#3D475B"/>
</svg>
