<svg width="602" height="459" viewBox="0 0 602 459" fill="none" xmlns="http://www.w3.org/2000/svg">
<path d="M93.7882 0.592622C96.2172 0.420622 98.6682 0.39362 101.104 0.37462C135.391 0.10262 169.72 0.241622 204.007 0.245622L383.352 0.23961L466.302 0.213609C504.487 0.214609 545.022 -4.01839 574.222 25.1556C600.777 51.6906 601.662 80.6836 601.832 115.785L601.852 247.146V289.401C601.832 307.801 601.977 328.711 597.762 346.611C591.857 371.661 571.532 394.806 547.752 404.416C533.182 410.306 516.507 411.401 500.872 411.876C488.427 412.196 475.972 412.311 463.522 412.221L402.957 412.176C394.342 412.171 369.682 411.446 362.562 413.561C344.612 418.886 321.317 457.156 303.132 458.801C298.847 459.176 294.552 458.271 290.782 456.206C285.132 453.176 282.639 449.446 278.355 445.886C267.719 437.046 251.111 415.866 237.875 413.036C231.006 411.566 211.042 412.186 203.019 412.191L136.464 412.226C115.256 412.206 83.9752 412.776 63.9642 407.371C52.1842 404.236 41.2772 398.451 32.0762 390.456C-4.8658 358.761 0.237193 314.451 0.241193 270.499L0.247205 195.295L0.219205 133.92C0.194205 115.702 -0.116804 87.8946 3.4162 70.3106C6.3572 55.4506 13.1902 41.6376 23.2162 30.2816C43.3662 7.30662 64.7992 2.38362 93.7882 0.592622Z" fill="#616A7F"/>
</svg>
