<svg width="579" height="437" viewBox="0 0 579 437" fill="none" xmlns="http://www.w3.org/2000/svg">
<path d="M94.6782 0.253029L97.4612 0.217033C131.083 -0.178967 165.104 0.0870334 198.752 0.0920334L372.077 0.0840226L452.977 0.0640335C459.737 0.0650335 466.502 -0.0389655 473.287 0.0900345C503.517 0.665035 531.907 -0.755962 554.797 22.306C577.567 45.247 578.507 70.597 578.672 100.933V236.784L578.677 280.42C578.662 295.695 578.772 316.285 575.347 330.94C572.077 344.515 565.067 356.895 555.112 366.685C533.277 388.54 507.507 388.965 478.647 389.305L438.512 389.41L393.002 389.355C378.902 389.34 358.687 387.68 345.702 391.87C328.817 397.315 300.342 435.785 289.817 436.235C287.447 436.34 285.072 435.13 283.152 433.85C279.097 431.145 275.592 427.285 272.09 423.905C263.456 415.575 252.474 403.73 242.952 396.94C238.916 394.06 234.106 391.815 229.287 390.64C218.511 388.01 205.644 389.44 194.532 389.395L125.169 389.44C105.972 389.445 74.5962 389.985 56.6192 385.315C45.1992 382.425 34.6802 376.73 26.0162 368.745C5.85517 350.115 0.982163 330.03 0.299163 303.425C-0.114837 287.325 0.0221708 271.21 0.0201708 255.101L0.039168 172.495L0.0521685 116.304C0.0771685 99.232 -0.299835 77.11 3.22616 60.438C5.97016 46.977 12.4242 34.552 21.8602 24.567C42.8132 2.12902 66.1602 1.19203 94.6782 0.253029Z" fill="#18212F"/>
</svg>
