<svg width="491" height="246" viewBox="0 0 491 246" fill="none" xmlns="http://www.w3.org/2000/svg">
<path d="M82.8816 145.413C107.716 144.909 134.047 145.339 158.976 145.334H307.201L420.431 145.324C438.836 145.336 457.241 145.191 475.646 145.387C482.816 145.464 488.676 148.788 490.306 156.206C491.066 159.783 490.371 163.515 488.376 166.579C485.926 170.385 483.151 171.793 478.926 172.775C450.671 173.136 421.621 172.797 393.311 172.791L230.618 172.776L132.002 172.76C115.642 172.761 99.2766 172.875 82.9206 172.711C76.5226 172.647 70.9596 167.552 69.9616 161.296C69.3856 157.472 70.4596 153.584 72.9166 150.598C75.8406 146.977 78.4996 145.96 82.8816 145.413Z" fill="#48ACFD"/>
<path d="M84.1886 217.904L352.491 217.934C366.376 217.944 444.466 216.639 451.506 219.064C454.751 220.184 457.216 222.964 458.546 226.059C460.046 229.559 460.216 233.614 458.736 237.144C457.011 241.264 453.701 243.294 449.801 245.009C444.726 245.599 436.586 245.404 431.281 245.399L401.341 245.344L306.966 245.339L155.769 245.354L110.252 245.369C101.272 245.384 92.3496 245.424 83.3696 245.224C76.1306 245.059 70.5046 239.884 69.8656 232.604C69.5836 229.114 70.6986 225.654 72.9646 222.989C76.2336 219.129 79.4386 218.269 84.1886 217.904Z" fill="#697287"/>
<path d="M81.5876 0.327707C101.214 -0.315293 123.131 0.1857 143.009 0.1887L257.641 0.208689L346.911 0.202707C360.761 0.199707 374.611 0.165705 388.456 0.137705C394.596 0.125705 401.731 3.53269 403.286 9.96369C405.461 18.9337 400.926 25.2157 392.331 27.6737C373.301 28.0547 352.791 27.6937 333.666 27.6937L216.957 27.6927L125.127 27.6667C111.779 27.6517 98.6116 27.6307 85.0056 27.7527C73.4476 27.8557 66.1506 17.5867 71.8616 6.93571C73.8656 3.19871 77.4646 1.26371 81.5876 0.327707Z" fill="#697287"/>
<path d="M81.6116 72.7677C97.0896 72.1997 116.499 72.7147 132.309 72.7177L232.058 72.7277L336.451 72.6877C354.381 72.6827 372.396 72.5977 390.321 72.7757C392.226 72.7957 394.106 73.0647 395.821 73.9697C403.076 77.8047 406.131 86.2407 401.866 93.5057C399.511 97.5137 396.291 99.0787 392.001 100.115C378.806 100.796 359.691 100.212 346.126 100.21L257.071 100.194L143.205 100.205C123.349 100.206 103.598 100.248 83.6426 100.105C73.1646 100.03 66.6106 89.2897 71.5096 79.8657C73.4826 76.0717 77.5446 73.8497 81.6116 72.7677Z" fill="#697287"/>
<path d="M7.50056 130.253C7.83256 130.292 8.16556 130.324 8.49656 130.369C12.8936 130.971 45.5306 151.041 47.9826 154.507C49.2496 156.297 50.1686 158.641 49.7096 160.859C48.2996 167.663 35.7826 173.244 30.1286 176.746C24.0496 180.299 18.1986 184.937 11.8116 187.869C9.55856 188.904 7.52358 189.414 5.16358 188.419C3.19658 187.587 1.53156 185.983 0.836557 183.943C-0.433443 180.221 -0.228444 137.187 1.25456 134.257C2.49056 131.815 5.01856 130.873 7.50056 130.253Z" fill="#48ACFD"/>
</svg>
